<svg width="17" height="10" viewBox="0 0 17 10" fill="none" xmlns="http://www.w3.org/2000/svg">
<path d="M8.99666 7.58529L2.70366 1.29229C2.61142 1.19678 2.50107 1.1206 2.37907 1.06819C2.25706 1.01578 2.12584 0.988192 1.99306 0.987038C1.86029 0.985884 1.72861 1.01119 1.60571 1.06147C1.48281 1.11175 1.37116 1.186 1.27727 1.27989C1.18338 1.37379 1.10912 1.48544 1.05884 1.60834C1.00856 1.73123 0.983259 1.86291 0.984413 1.99569C0.985567 2.12847 1.01315 2.25969 1.06556 2.38169C1.11797 2.5037 1.19415 2.61404 1.28966 2.70629L7.93566 9.35329C8.07496 9.49268 8.24036 9.60325 8.42242 9.6787C8.60447 9.75414 8.7996 9.79297 8.99666 9.79297C9.19373 9.79297 9.38886 9.75414 9.57091 9.6787C9.75296 9.60325 9.91836 9.49268 10.0577 9.35329L16.7037 2.70629C16.8858 2.51769 16.9866 2.26509 16.9843 2.00289C16.9821 1.74069 16.8769 1.48988 16.6915 1.30447C16.5061 1.11906 16.2553 1.01389 15.9931 1.01162C15.7309 1.00934 15.4783 1.11013 15.2897 1.29229L8.99666 7.58529Z" fill="white"/>
</svg>
