<svg width="79" height="13" viewBox="0 0 79 13" fill="none" xmlns="http://www.w3.org/2000/svg">
<path d="M0.604 9.37469C0.829758 9.16875 0.999705 8.90902 1.098 8.61969C1.24297 8.23422 1.34427 7.83372 1.4 7.42569C1.48074 6.86583 1.53579 6.30258 1.565 5.73769C1.601 5.09769 1.633 4.36569 1.661 3.54269H6.875V9.37369H7.945V12.6947H6.559L6.435 10.6647H1.523L1.4 12.6947H0V9.37469H0.604ZM5.283 9.37469V4.83269H3.032C2.986 5.95769 2.908 6.89069 2.798 7.63169C2.698 8.36369 2.528 8.94469 2.291 9.37369H5.281L5.283 9.37469ZM9.788 8.13869C9.888 7.67269 9.953 7.06869 9.98 6.32869C10.017 5.57869 10.035 4.64869 10.035 3.54269H15.153V10.6637H13.562V4.83269H11.49C11.4765 5.66588 11.4398 6.49853 11.38 7.32969C11.325 8.05269 11.21 8.66569 11.037 9.16869C10.872 9.66269 10.63 10.0417 10.31 10.3067C9.999 10.5727 9.578 10.7047 9.047 10.7047C8.974 10.7047 8.901 10.7007 8.827 10.6917C8.764 10.6917 8.695 10.6867 8.622 10.6777V9.19469C8.713 9.21269 8.782 9.22269 8.828 9.22269C8.93975 9.22714 9.05103 9.20593 9.15331 9.16069C9.25558 9.11545 9.34613 9.04737 9.418 8.96169C9.573 8.77869 9.697 8.50469 9.788 8.13869ZM16.874 5.87469C16.874 5.49069 16.947 5.15269 17.093 4.85969C17.2343 4.57321 17.4413 4.32412 17.697 4.13269C17.962 3.93169 18.277 3.78469 18.644 3.69269C19.019 3.59269 19.43 3.54269 19.878 3.54269H22.526V10.6637H20.935V8.24869H19.92L18.232 10.6647H16.448L18.41 7.90669C17.916 7.76069 17.537 7.52269 17.271 7.19369C17.006 6.86369 16.874 6.42469 16.874 5.87669V5.87469ZM20.934 6.98669V4.80469H20.002C19.562 4.80469 19.202 4.88769 18.918 5.05169C18.644 5.21669 18.506 5.49169 18.506 5.87569C18.506 6.26869 18.63 6.55269 18.876 6.72569C19.133 6.89968 19.494 6.98669 19.961 6.98669H20.934ZM34.009 7.12469C34.009 7.71869 33.918 8.24469 33.735 8.70169C33.5678 9.13515 33.3105 9.52816 32.98 9.85469C32.6608 10.1707 32.277 10.414 31.855 10.5677C31.425 10.7237 30.958 10.8007 30.455 10.8007C29.943 10.8007 29.472 10.7137 29.042 10.5407C28.612 10.3667 28.242 10.1057 27.931 9.75869C27.6022 9.37062 27.3507 8.92325 27.19 8.44069C27.016 7.91069 26.929 7.28869 26.929 6.57469C26.929 5.92469 26.956 5.33069 27.011 4.79169C27.057 4.29916 27.1491 3.81203 27.286 3.33669C27.423 2.90669 27.606 2.53169 27.835 2.21169C28.063 1.88169 28.355 1.59869 28.713 1.36169C29.133 1.09569 29.582 0.926687 30.057 0.853687C30.542 0.780687 31.037 0.733686 31.539 0.716686C32.097 0.688686 32.518 0.642686 32.802 0.578686C33.085 0.505686 33.328 0.414687 33.529 0.304688V1.71769C33.4286 1.78167 33.3229 1.83688 33.213 1.88269C33.103 1.91869 32.975 1.95069 32.829 1.97869C32.683 2.00569 32.513 2.03369 32.321 2.06069C32.129 2.07869 31.905 2.09769 31.649 2.11569C31.183 2.16169 30.757 2.20769 30.373 2.25269C30.0071 2.28285 29.6539 2.40049 29.343 2.59569C28.9917 2.83838 28.7235 3.18333 28.575 3.58369C28.411 4.00369 28.301 4.51669 28.246 5.12069C28.703 4.08669 29.586 3.57069 30.894 3.57069C31.315 3.57069 31.713 3.65269 32.088 3.81669C32.4683 3.9696 32.8103 4.20411 33.09 4.50368C33.373 4.80469 33.597 5.17569 33.762 5.61369C33.927 6.05369 34.009 6.55769 34.009 7.12469ZM30.455 9.46969C31.013 9.46969 31.471 9.28269 31.827 8.90769C32.193 8.52369 32.377 7.93769 32.377 7.15169C32.377 6.36469 32.193 5.78369 31.827 5.40869C31.471 5.02469 31.013 4.83269 30.455 4.83269C29.906 4.83269 29.454 5.01969 29.097 5.39469C28.749 5.76969 28.576 6.34669 28.576 7.12469C28.576 7.92869 28.754 8.52369 29.111 8.90769C29.467 9.28269 29.916 9.46969 30.455 9.46969ZM36.944 8.50969L40.237 3.54269H41.802V10.6637H40.224V5.72369L36.958 10.6637H35.366V3.54269H36.944V8.50969ZM48.835 8.61969C48.835 9.00369 48.753 9.33269 48.588 9.60769C48.4281 9.88678 48.2022 10.1223 47.93 10.2937C47.655 10.4677 47.33 10.5957 46.955 10.6777C46.5629 10.7616 46.1629 10.8028 45.762 10.8007C45.158 10.8007 44.664 10.7407 44.28 10.6227C43.896 10.4947 43.598 10.3667 43.388 10.2387V8.93469C43.653 9.10869 43.982 9.25069 44.376 9.36069C44.778 9.46069 45.213 9.51069 45.679 9.51069C46.164 9.51069 46.549 9.43769 46.832 9.29169C47.115 9.14569 47.257 8.89869 47.257 8.55169C47.257 8.22169 47.129 7.98869 46.873 7.85169C46.617 7.70469 46.219 7.63169 45.679 7.63169H44.678V6.42369H45.707C46.137 6.42369 46.466 6.35069 46.695 6.20369C46.933 6.05869 47.051 5.83869 47.051 5.54569C47.051 5.22569 46.919 5.00569 46.653 4.88769C46.397 4.75969 46.063 4.69569 45.652 4.69569C45.2434 4.68985 44.8362 4.74513 44.444 4.85969C44.1104 4.95049 43.7917 5.08927 43.498 5.27169V3.96769C43.726 3.82169 44.038 3.69369 44.431 3.58369C44.824 3.46469 45.309 3.40569 45.885 3.40569C46.763 3.40569 47.431 3.56569 47.888 3.88569C48.346 4.20569 48.574 4.67269 48.574 5.28569C48.574 5.75169 48.446 6.11769 48.19 6.38269C47.934 6.63869 47.559 6.82669 47.065 6.94569C48.245 7.12869 48.835 7.68569 48.835 8.61969ZM54.984 7.65869H51.979V10.6637H50.387V3.54269H51.979V6.36969H54.984V3.54269H56.575V10.6637H54.984V7.65869ZM64.315 10.1427C64.214 10.2067 64.091 10.2797 63.945 10.3627C63.798 10.4347 63.624 10.5037 63.423 10.5677C62.9028 10.7275 62.3611 10.8061 61.817 10.8007C60.509 10.8007 59.531 10.4767 58.881 9.82669C58.241 9.17669 57.921 8.26669 57.921 7.09669C57.921 6.51969 58.008 6.00369 58.181 5.54669C58.355 5.08869 58.598 4.70469 58.909 4.39369C59.219 4.07369 59.59 3.83069 60.02 3.66669C60.45 3.49269 60.921 3.40569 61.433 3.40569C61.963 3.40569 62.44 3.49269 62.86 3.66569C63.29 3.83969 63.642 4.10069 63.917 4.44869C64.191 4.79569 64.379 5.22569 64.479 5.73869C64.589 6.25069 64.594 6.84869 64.493 7.53569H59.567C59.631 8.18569 59.847 8.67468 60.212 9.00368C60.578 9.32368 61.15 9.48369 61.927 9.48369C62.494 9.48369 62.965 9.41569 63.34 9.27769C63.725 9.13169 64.05 8.98069 64.315 8.82569V10.1427ZM61.432 4.66769C60.966 4.66769 60.572 4.80969 60.252 5.09269C59.932 5.37669 59.722 5.79769 59.622 6.35569H62.969C62.987 5.77869 62.859 5.35369 62.585 5.07969C62.31 4.80469 61.926 4.66769 61.432 4.66769ZM69.25 10.8007C68.7229 10.8086 68.1985 10.725 67.7 10.5537C67.2651 10.3943 66.8678 10.1468 66.533 9.82669C66.206 9.49525 65.9537 9.09768 65.793 8.66069C65.618 8.20269 65.532 7.68169 65.532 7.09669C65.532 6.51969 65.618 6.00369 65.792 5.54669C65.9504 5.10914 66.2053 4.7129 66.5379 4.38742C66.8705 4.06195 67.2721 3.8156 67.713 3.66669C68.18 3.49269 68.701 3.40569 69.277 3.40569C69.771 3.40569 70.201 3.46069 70.567 3.56969C70.942 3.67969 71.239 3.81669 71.459 3.98169V5.29869C71.1698 5.11332 70.8557 4.97021 70.526 4.87369C70.196 4.77369 69.813 4.72269 69.373 4.72269C67.901 4.72269 67.164 5.51369 67.164 7.09669C67.164 8.67869 67.887 9.46969 69.332 9.46969C69.799 9.46969 70.197 9.41969 70.526 9.31969C70.864 9.20969 71.176 9.07169 71.459 8.90769V10.2247C71.1804 10.3994 70.8806 10.5378 70.567 10.6367C70.21 10.7467 69.771 10.8007 69.25 10.8007ZM77.027 9.41469C76.954 9.57969 76.854 9.74469 76.726 9.90969C76.606 10.0737 76.456 10.2247 76.273 10.3617C76.0805 10.4994 75.8676 10.606 75.642 10.6777C75.3621 10.7647 75.0701 10.8063 74.777 10.8007C74.467 10.8007 74.178 10.7557 73.913 10.6637C73.6555 10.5857 73.4171 10.455 73.213 10.2797C73.0153 10.0985 72.8565 9.87905 72.746 9.63469C72.6323 9.34677 72.5765 9.03921 72.582 8.72969C72.582 7.95169 72.87 7.37069 73.446 6.98669C74.023 6.59369 74.836 6.39669 75.889 6.39669H76.973V5.95669C76.973 5.49069 76.853 5.17068 76.616 4.99669C76.378 4.81468 75.985 4.72269 75.436 4.72269C74.969 4.72269 74.53 4.79169 74.119 4.92869C73.716 5.05669 73.359 5.20769 73.049 5.38169V4.05069C73.4073 3.86515 73.784 3.71768 74.173 3.61069C74.6682 3.46981 75.1811 3.40077 75.696 3.40569C76.611 3.40569 77.316 3.59769 77.81 3.98169C78.313 4.35669 78.564 4.96069 78.564 5.79269V9.79969C78.574 9.89969 78.578 10.0057 78.578 10.1147L78.605 10.4307C78.615 10.5217 78.624 10.6007 78.633 10.6637H77.165C77.1296 10.4866 77.102 10.3081 77.082 10.1287C77.0657 9.92323 77.0523 9.71754 77.042 9.51169L77.027 9.41469ZM75.217 9.56569C75.555 9.56569 75.834 9.49769 76.053 9.36069C76.282 9.21369 76.465 9.04969 76.603 8.86669C76.739 8.67469 76.835 8.48669 76.89 8.30369C76.945 8.12069 76.972 7.99369 76.972 7.91969V7.43969H75.985C75.353 7.43969 74.892 7.53969 74.599 7.74169C74.4594 7.82771 74.3452 7.9492 74.2679 8.09378C74.1906 8.23836 74.153 8.40085 74.159 8.56469C74.159 8.87469 74.247 9.12269 74.42 9.30469C74.603 9.47969 74.869 9.56569 75.216 9.56569H75.217Z" fill="white"/>
</svg>
