<svg width="107" height="36" viewBox="0 0 107 36" fill="none" xmlns="http://www.w3.org/2000/svg">
<path d="M103.316 26.9534C101.647 26.9534 100.296 25.6423 100.296 24.0134C100.296 22.3844 101.647 21.0335 103.316 21.0335C104.945 21.0335 106.296 22.3844 106.296 24.0134C106.296 25.6423 104.945 26.9534 103.316 26.9534Z" fill="white"/>
<path d="M20.1961 26.4689V7.08027H24.6459V9.74224H24.7254C26.3146 7.83516 28.6587 6.80215 31.2015 6.80215C35.4527 6.80215 38.3133 9.22574 38.3133 15.0662V26.4689H33.8635V16.2184C33.8635 12.1261 32.314 10.815 29.652 10.815C26.6325 10.815 24.6459 12.9207 24.6459 16.7349V26.4689H20.1961Z" fill="white"/>
<path d="M66.2892 27.7558C60.9255 27.7558 56.9127 23.8225 56.9127 17.8231C56.9127 11.9827 60.9255 7.7712 66.2495 7.7712C68.7128 7.7712 70.8583 8.68501 72.2488 10.4332L72.3283 10.3934V8.04931H76.7782V27.438H72.5269V24.8952L72.4475 24.8555C71.0569 26.7228 68.9909 27.7558 66.2892 27.7558ZM67.0044 23.7033C70.0239 23.7033 72.5269 21.3592 72.5269 17.8628C72.5269 14.4063 70.1828 11.784 67.0044 11.784C63.9054 11.784 61.442 14.1281 61.442 17.8628C61.442 21.2797 63.7067 23.7033 67.0044 23.7033Z" fill="white"/>
<path d="M78.2606 35.3047V8.04931H82.7105V10.3537H82.7899C84.2202 8.68501 86.3657 7.7712 88.9085 7.7712C94.2721 7.7712 98.285 11.9827 98.285 17.8231C98.285 23.8225 94.2721 27.7558 88.8687 27.7558C86.2465 27.7558 84.2202 26.8023 82.7899 25.0541L82.7105 25.0939V35.3047H78.2606ZM88.1933 23.7033C91.4512 23.7033 93.7556 21.2797 93.7556 17.8628C93.7556 14.1281 91.2526 11.784 88.1536 11.784C84.8162 11.784 82.5118 14.4063 82.5118 17.8628C82.5118 21.3592 85.0148 23.7033 88.1933 23.7033Z" fill="white"/>
<path d="M44.5761 7.57253H40.2154V26.9534H44.5761V7.57253Z" fill="white"/>
<path d="M59.5963 0.78921H40.2154V5.14991H49.9058V26.9534H54.7511V5.14991H59.5963V0.78921Z" fill="white"/>
<path d="M0 19.4433V0.304688H5.02801V18.3888C4.92837 20.6804 6.75935 22.5927 9.05316 22.5927C11.2783 22.5927 13.0821 20.7889 13.0821 18.5638V0.304688H18.8964V19.4433C18.8964 24.6614 14.2713 26.9534 9.05316 26.9534C3.83507 26.9534 0 24.6614 0 19.4433Z" fill="white"/>
</svg>
